<svg xmlns="http://www.w3.org/2000/svg" width="143" height="77" viewBox="0 0 143 77" fill="none"><path d="M20.2672 42.9635C20.6591 42.7296 21.0579 42.4889 21.4497 42.2345C25.2516 39.7448 28.5722 36.313 31.226 32.3584C30.8685 33.4863 30.4629 34.6417 29.9885 35.8109C24.4541 49.6277 14.6847 53.1834 8.84099 58.7197C2.44724 64.7856 3.12099 70.2876 2.19974 73.1693C2.19974 73.1693 -1.15526 57.3442 15.3791 40.7077C26.9016 29.1054 26.1729 19.4838 26.1591 19.3325C26.1316 19.4976 24.5847 29.0366 14.1347 39.0227C6.11161 46.6842 1.47786 52.9977 1.29224 62.0209C-1.10714 53.0458 0.0547394 46.0239 2.91474 40.0474C2.85974 41.4367 2.96286 42.936 3.31349 44.4971C3.31349 44.4971 3.43036 40.3569 5.29349 36.4643C11.9279 22.5856 28.2835 15.2061 27.266 0C27.266 0 35.3785 8.41113 33.1029 22.3586C31.8172 30.2677 26.441 37.8742 20.2672 42.9635Z" fill="url(#paint0_radial_26_1761)"></path><path d="M33.1032 22.3586C31.8176 30.2677 26.4345 37.8742 20.2676 42.9635C38.1563 21.6365 27.2663 0 27.2663 0C27.2663 0 35.3788 8.41113 33.1032 22.3586Z" fill="#ED03CC"></path><path d="M31.2331 32.3516C30.8756 33.4795 30.47 34.6349 29.9956 35.804C24.4612 49.6209 14.6918 53.1765 8.84809 58.7129C2.44747 64.7856 3.12122 70.2876 2.19997 73.1693C2.19997 73.1693 1.38184 60.6867 11.2268 53.2453C21.0718 45.8039 26.3106 41.4436 31.2331 32.3516Z" fill="#ED03CC"></path><path d="M27.2663 0C27.2663 0 27.2731 0.0137549 27.2938 0.0412647C27.3144 0.0687746 27.335 0.116917 27.3694 0.171936C27.4381 0.288853 27.5344 0.46079 27.6444 0.701501C27.8713 1.16917 28.1669 1.87755 28.4488 2.81976C28.5863 3.28742 28.7169 3.81699 28.8337 4.40157C28.8612 4.546 28.8888 4.6973 28.9163 4.84861C28.93 4.92426 28.9437 4.99991 28.9575 5.08244C28.9712 5.15809 28.9781 5.24062 28.9919 5.31627C29.0125 5.47446 29.0331 5.63951 29.0537 5.80457C29.0675 5.96963 29.0881 6.14157 29.1019 6.31351C29.1225 6.48544 29.1294 6.65738 29.1363 6.83619C29.1431 7.01501 29.1569 7.19382 29.1569 7.37951C29.1569 7.5652 29.1637 7.75089 29.1637 7.93658C29.1637 8.12915 29.1569 8.31485 29.15 8.51429C29.15 8.61058 29.1431 8.70686 29.1431 8.81002C29.1362 8.90631 29.1294 9.00947 29.1225 9.10575C29.1156 9.20204 29.1088 9.3052 29.1019 9.40836C29.095 9.51152 29.0881 9.60781 29.0744 9.71097C29.0538 9.91729 29.0262 10.1236 29.0056 10.3299C28.9987 10.385 28.9919 10.4331 28.985 10.4881C28.9781 10.5431 28.9712 10.5913 28.9575 10.6463C28.9437 10.7495 28.9231 10.8595 28.9094 10.9627C28.8956 11.0658 28.875 11.1759 28.8612 11.279C28.8475 11.3891 28.82 11.4922 28.7994 11.6023C28.7512 11.8155 28.71 12.0355 28.6619 12.2556C28.6069 12.4688 28.5519 12.6889 28.4969 12.909C28.4694 13.019 28.4419 13.1291 28.4075 13.2391C28.3731 13.3491 28.3387 13.4592 28.3044 13.5692C28.0431 14.4633 27.6994 15.3574 27.3006 16.2583C27.1975 16.4853 27.0944 16.7053 26.9844 16.9323L26.9019 17.1042C26.8744 17.1593 26.8469 17.2143 26.8125 17.2693C26.7575 17.3793 26.6956 17.4894 26.6406 17.6063C26.5788 17.7163 26.5238 17.8332 26.4619 17.9433L26.3725 18.1152C26.345 18.1702 26.3106 18.2253 26.2763 18.2803C26.1456 18.5004 26.015 18.7204 25.8844 18.9474C25.7606 19.1743 25.6162 19.3876 25.4719 19.6076C25.4031 19.7177 25.3275 19.8277 25.2588 19.9377L25.1488 20.1028L25.0938 20.1853L25.0662 20.2266C25.0662 20.2266 25.0525 20.2472 25.0456 20.2541L25.0319 20.2747C24.9631 20.3779 24.8875 20.4811 24.8187 20.5911L24.7087 20.7493L24.5987 20.9075C24.5231 21.0175 24.4475 21.1207 24.3719 21.2307C24.2963 21.3339 24.2206 21.4439 24.1381 21.5471C22.9075 23.2458 21.5669 24.9239 20.1919 26.602C18.8169 28.2801 17.4075 29.9582 16.0119 31.6432C14.6163 33.3282 13.2413 35.0131 11.935 36.705C10.6288 38.3968 9.38437 40.0818 8.25 41.7599C7.11562 43.438 6.09125 45.0955 5.21813 46.7186C4.77813 47.5301 4.37937 48.3348 4.015 49.1188C3.92563 49.3182 3.83625 49.5108 3.74687 49.7034C3.66437 49.8959 3.575 50.0954 3.4925 50.2811C3.41687 50.4737 3.33437 50.6662 3.25875 50.8588C3.23812 50.9069 3.2175 50.9551 3.20375 51.0032C3.18312 51.0514 3.16937 51.0995 3.14875 51.1476C3.11437 51.2439 3.07313 51.3333 3.03875 51.4296C2.75688 52.1793 2.5025 52.9083 2.30312 53.6166C2.27562 53.7061 2.24812 53.7886 2.2275 53.878C2.20687 53.9674 2.17938 54.0499 2.15875 54.1393C2.11063 54.3113 2.0625 54.4832 2.02125 54.6483C1.93875 54.9853 1.85625 55.3154 1.79437 55.6386C1.65 56.2782 1.56063 56.8903 1.47125 57.4543C1.43688 57.7362 1.4025 58.0113 1.375 58.2727C1.35438 58.534 1.33375 58.7816 1.31312 59.0223C1.29937 59.263 1.28562 59.4831 1.27875 59.6963C1.27188 59.9095 1.265 60.109 1.265 60.2947C1.25813 60.4804 1.265 60.6523 1.265 60.8105C1.265 60.9686 1.265 61.1131 1.265 61.2438C1.28563 61.7596 1.2925 62.0347 1.2925 62.0347C1.2925 62.0347 1.27875 61.9659 1.24437 61.8352C1.21 61.7045 1.16188 61.512 1.10688 61.2575C1.07937 61.1268 1.05187 60.9893 1.02438 60.8311C0.99 60.6729 0.955625 60.501 0.935 60.3153C0.9075 60.1296 0.873125 59.9302 0.845625 59.7101C0.825 59.4969 0.7975 59.263 0.77 59.0223C0.749375 58.7816 0.72875 58.5203 0.715 58.2521C0.70125 57.9838 0.694375 57.7019 0.6875 57.3993C0.6875 57.2479 0.6875 57.1035 0.6875 56.9453C0.6875 56.8697 0.6875 56.7872 0.6875 56.7115C0.6875 56.6359 0.694375 56.5533 0.694375 56.4708C0.70125 56.3126 0.708125 56.1476 0.715 55.9825C0.715 55.9 0.721875 55.8174 0.72875 55.7349C0.735625 55.6524 0.7425 55.563 0.749375 55.4804C0.77 55.1366 0.81125 54.7858 0.8525 54.4213C0.873125 54.2425 0.900625 54.0568 0.928125 53.8711C0.941875 53.7748 0.955625 53.6854 0.969375 53.5891C0.983125 53.4929 1.00375 53.4035 1.0175 53.3072C1.14125 52.5438 1.32 51.7529 1.53313 50.9344C1.63625 50.5218 1.76 50.1091 1.89062 49.6896C1.95938 49.4833 2.02812 49.2701 2.09687 49.0569C2.16562 48.8437 2.24125 48.6305 2.31687 48.4173C2.62625 47.5576 2.97688 46.6842 3.36875 45.797C4.1525 44.0295 5.115 42.2276 6.20125 40.4326C7.2875 38.6376 8.50438 36.8425 9.81063 35.0819C11.11 33.3213 12.4919 31.5813 13.9012 29.8757C15.3106 28.1701 16.7475 26.5057 18.1569 24.8689C19.5594 23.232 20.9413 21.6296 22.2131 20.0547C22.3713 19.8552 22.5225 19.6626 22.6806 19.4701L22.7975 19.3257L22.9144 19.1743C22.99 19.0712 23.0725 18.9749 23.1481 18.8717C23.2925 18.6792 23.43 18.4866 23.5744 18.294C23.7188 18.1015 23.8631 17.9089 23.9938 17.7094C24.1244 17.51 24.255 17.3174 24.3925 17.1249C24.4269 17.0767 24.4612 17.0286 24.4887 16.9804L24.5781 16.8291C24.64 16.7329 24.7019 16.6297 24.7638 16.5334C24.8256 16.4371 24.8875 16.334 24.9494 16.2377C24.9769 16.1895 25.0112 16.1414 25.0387 16.0932L25.1213 15.9419C25.2313 15.7425 25.3481 15.5431 25.4581 15.3436C25.4856 15.2955 25.5131 15.2473 25.5406 15.1923L25.6162 15.041C25.6644 14.9378 25.7194 14.8416 25.7675 14.7384C25.8638 14.5389 25.9737 14.3464 26.0631 14.14C26.1525 13.9406 26.2419 13.7412 26.3312 13.5417C26.3794 13.4454 26.4137 13.3423 26.455 13.246C26.4963 13.1497 26.5375 13.0465 26.5788 12.9503C26.62 12.854 26.6612 12.7508 26.7025 12.6545C26.7437 12.5582 26.7712 12.4551 26.8125 12.3588C26.8813 12.1593 26.9569 11.9668 27.0256 11.7742C27.0875 11.5748 27.1494 11.3822 27.2113 11.1896C27.2388 11.0933 27.2731 10.9971 27.3006 10.9008C27.3281 10.8045 27.3556 10.7082 27.3762 10.6119C27.4037 10.5156 27.4312 10.4193 27.4519 10.3231C27.4656 10.2749 27.4794 10.2268 27.4931 10.1786C27.5069 10.1305 27.5138 10.0824 27.5275 10.0342C27.5688 9.84164 27.6169 9.65595 27.6581 9.47026C27.6787 9.38085 27.6994 9.28457 27.7131 9.19516C27.7338 9.10575 27.7475 9.00947 27.7613 8.92006C27.7819 8.83065 27.7956 8.73437 27.8162 8.64496C27.83 8.55556 27.8438 8.46615 27.8575 8.37674C27.9744 7.66149 28.0294 6.96686 28.0706 6.32038C28.0775 6.15532 28.0844 5.99714 28.0913 5.83896C28.0913 5.68078 28.0912 5.5226 28.0981 5.37129C28.0981 5.29564 28.0981 5.21999 28.0981 5.14434C28.0981 5.06869 28.0913 4.99303 28.0913 4.92426C28.0844 4.77983 28.0844 4.62853 28.0775 4.49098C28.0706 4.34655 28.0638 4.209 28.0569 4.07145C28.05 3.93391 28.0362 3.80323 28.0225 3.67256C28.0019 3.41122 27.9744 3.16363 27.9469 2.9298C27.9125 2.69596 27.885 2.46901 27.8506 2.26268C27.83 2.15952 27.8162 2.05636 27.8025 1.96008C27.7819 1.86379 27.7681 1.76751 27.7475 1.6781C27.6719 1.31359 27.6031 1.00411 27.5344 0.75652C27.5 0.632726 27.4725 0.522687 27.445 0.426402C27.4175 0.330118 27.3969 0.254466 27.3694 0.192569C27.2938 0.0618971 27.2663 0 27.2663 0Z" fill="#29235C"></path><path d="M24.1035 19.5389C16.4722 30.1439 -1.31339 45.7351 1.29224 62.0209C-1.10714 53.0458 0.0547394 46.0239 2.91474 40.0474C2.85974 41.4367 2.96286 42.936 3.31349 44.4971C3.31349 44.4971 3.43036 40.3569 5.29349 36.4643C11.9279 22.5856 28.2835 15.2061 27.266 0C27.266 0 31.7416 8.93382 24.1035 19.5389Z" fill="url(#paint1_linear_26_1761)"></path><path d="M20.2608 57.3787C20.0958 57.2136 20.0614 57.0073 20.1577 56.7734C20.2883 56.6084 20.4739 56.4915 20.7146 56.4227C21.1202 56.292 21.6221 56.1614 22.2271 56.0444C22.8321 55.9275 23.4714 55.8175 24.1452 55.7143C24.8189 55.6112 25.4721 55.5218 26.1114 55.4392C26.7508 55.3567 27.2871 55.281 27.7271 55.2123C27.7958 55.1779 27.9471 55.1641 28.1808 55.1641C28.5521 53.9881 29.0539 52.5232 29.6933 50.7763C30.3327 49.0294 31.0889 47.1794 31.9621 45.2262C32.8352 43.273 33.8183 41.3267 34.9114 39.3735C36.0046 37.4203 37.1664 35.6528 38.3902 34.0503C39.6139 32.4548 40.9133 31.1343 42.2746 30.0889C43.6358 29.0504 45.0246 28.4727 46.4339 28.3764H46.7364C46.7708 28.3764 46.7914 28.3696 46.8121 28.3489C46.8258 28.3352 46.8533 28.3214 46.8877 28.3214H47.5958C47.7952 28.3214 48.0083 28.3283 48.2283 28.3489C48.4483 28.3696 48.6408 28.4108 48.8058 28.4727H48.9571L49.0052 28.5209C49.1083 28.5209 49.1702 28.5415 49.2046 28.569L50.0089 28.8716C50.6139 29.243 51.0746 29.5525 51.3977 29.8069C51.7139 30.0614 52.0783 30.4878 52.4839 31.093L52.5321 31.1412V31.1893L52.6833 31.4919C53.0202 32.0627 53.2539 32.7024 53.3914 33.4107C53.4946 34.1191 53.5427 34.855 53.5427 35.6321C53.4739 36.9114 53.3089 38.2043 53.0408 39.5179C52.7727 40.8315 52.4702 42.1107 52.1333 43.3487C51.9614 44.0226 51.8033 44.7035 51.6521 45.3913C51.5008 46.079 51.3427 46.7599 51.1708 47.4339L49.6583 53.7405H50.0089L51.6246 53.8437C51.9958 53.8437 52.3464 53.8643 52.6833 53.8918C53.0202 53.9262 53.3364 54.0293 53.6389 54.1944C53.8039 54.2632 53.9483 54.3319 54.0652 54.3938C54.1821 54.4626 54.2714 54.5795 54.3402 54.7446C54.4708 54.9784 54.4433 55.1985 54.2371 55.398C54.0377 55.5699 53.8177 55.6662 53.5839 55.7006H53.1783C53.0064 55.735 52.8346 55.7487 52.6489 55.7487C52.4633 55.7487 52.2846 55.7487 52.1196 55.7487C51.8514 55.7487 51.5627 55.7487 51.2602 55.7487C50.9577 55.7487 50.6552 55.7693 50.3527 55.7968H49.1427C48.8058 57.0761 48.4896 58.3621 48.1871 59.6551C47.8846 60.9481 47.5821 62.2548 47.2796 63.5615C47.0114 64.5381 46.8052 65.4597 46.6746 66.3331C46.5371 66.7045 46.4614 67.1378 46.4477 67.6467C46.4271 68.1488 46.4202 68.5889 46.4202 68.9603C46.3858 69.0635 46.3721 69.2835 46.3721 69.6137C46.3721 69.7168 46.3789 69.8062 46.3996 69.8888C46.4133 69.9713 46.4271 70.0676 46.4271 70.1639C46.4271 70.1295 46.4202 70.1088 46.3996 70.0882C46.3789 70.0745 46.3721 70.0332 46.3721 69.9644C46.3721 70.0332 46.3789 70.0813 46.3996 70.1157C46.4133 70.1501 46.4271 70.1845 46.4271 70.2189L46.6814 70.8241C46.7158 71.0235 46.6814 71.2642 46.5783 71.5325V71.5806C46.5439 71.952 46.3102 72.1721 45.8702 72.234C45.7327 72.2684 45.5333 72.2821 45.2652 72.2821C44.6602 72.2821 44.1583 72.0827 43.7527 71.6769C43.6496 71.6425 43.3333 71.4912 42.7971 71.223C42.2608 70.9548 41.7383 70.3977 41.2364 69.5586C40.7346 68.7196 40.3427 67.5092 40.0746 65.9273C39.8064 64.3455 39.8889 62.2273 40.3289 59.5726C40.4321 59.0017 40.5283 58.4103 40.6314 57.8051C40.7346 57.1999 40.8514 56.6153 40.9821 56.0376H40.8308C38.6789 56.1407 36.5958 56.292 34.5814 56.4915L30.2433 56.9454C30.0096 57.6538 29.7896 58.3484 29.5902 59.0361C29.3908 59.7239 29.2052 60.4254 29.0333 61.1269L28.0777 64.8613C28.0089 65.0608 27.9539 65.274 27.8989 65.4941C27.8508 65.7141 27.7889 65.9411 27.7202 66.1749C27.6514 66.4432 27.5758 66.732 27.4933 67.0346C27.4108 67.3372 27.3146 67.6261 27.2183 67.8943C27.1496 68.0318 27.1014 68.1625 27.0671 68.3001C27.0327 68.4376 26.9846 68.5889 26.9158 68.754L26.5652 69.5105C26.4964 69.6824 26.3658 69.765 26.1596 69.765C26.0908 69.765 26.0427 69.7581 26.0083 69.7375C25.9739 69.7237 25.9396 69.7099 25.9052 69.7099C25.8021 69.6756 25.6921 69.6205 25.5752 69.5311C25.4583 69.4486 25.3827 69.3386 25.3483 69.201C25.3483 68.4651 25.3621 67.7361 25.3964 67.0346C25.4308 66.3262 25.5133 65.6041 25.6508 64.8682L26.2558 62.0416C26.4208 61.2369 26.6133 60.4391 26.8333 59.6482C27.0533 58.8573 27.2802 58.0733 27.5139 57.303L25.0939 57.6056C24.5233 57.6744 23.9664 57.7432 23.4302 57.8051C22.8939 57.8738 22.3508 57.9426 21.8146 58.0045C21.4777 58.0045 21.1752 57.9701 20.9071 57.9014C20.6458 57.867 20.4258 57.6813 20.2608 57.3787ZM40.3289 53.995C40.4939 53.9606 40.6727 53.9468 40.8583 53.9468C41.0439 53.9468 41.2158 53.9468 41.3877 53.9468C41.8552 51.6635 42.3708 49.4696 42.9277 47.3651C43.4846 45.2606 44.0139 43.3418 44.5158 41.588C45.0177 39.8412 45.4783 38.3212 45.9046 37.0214C46.3239 35.7284 46.6333 34.745 46.8396 34.071C47.0389 33.0325 47.0389 32.3172 46.8396 31.9252C46.6402 31.5401 46.3514 31.3475 45.9802 31.3475C45.6777 31.3475 45.3339 31.4438 44.9489 31.6226C44.5639 31.8083 44.1927 32.0077 43.8421 32.2278C43.4914 32.4479 43.1958 32.6542 42.9621 32.8605C42.7283 33.06 42.5771 33.1838 42.5083 33.2113L42.1577 33.562C41.8896 33.8303 41.6283 34.1191 41.3739 34.4217C41.1196 34.7243 40.8583 35.0269 40.5902 35.3295C38.4039 38.1906 36.5408 41.2992 34.9939 44.6622C33.4471 48.0253 32.0996 51.4022 30.9583 54.7996C32.5739 54.6346 34.1346 54.4695 35.6471 54.3182C37.1527 54.1738 38.7133 54.0637 40.3289 53.995ZM52.5321 31.148V31.1962C52.4977 31.1962 52.4839 31.1618 52.4839 31.093C52.4771 31.1343 52.4977 31.148 52.5321 31.148Z" fill="#711BE0"></path><path d="M67.3547 36.1892C67.5197 36.4231 67.664 36.6844 67.7809 36.9732C67.8978 37.2621 67.8909 37.5372 67.7534 37.8054C67.5815 38.28 67.389 38.7476 67.1759 39.2153C66.9559 39.6898 66.729 40.1575 66.4953 40.6252L65.2853 43.3968C64.5084 45.0818 63.7797 46.7599 63.0922 48.438C62.4047 50.1229 61.7722 51.8354 61.2015 53.5823C60.6309 55.2948 60.1428 57.021 59.7372 58.7542C59.3315 60.4873 58.9947 62.2617 58.7265 64.0773C58.6922 64.3455 58.6578 64.6344 58.6234 64.937C58.589 65.2396 58.5409 65.5422 58.4722 65.8448C58.4034 66.2162 58.3553 66.6013 58.3209 67.0071C58.2865 67.4129 58.2522 67.798 58.2178 68.1694C58.1834 68.4376 58.1697 68.699 58.1697 68.9534C58.1697 69.2079 58.1215 69.4692 58.0184 69.7374C57.9153 70.1088 57.7984 70.4458 57.6678 70.7484C57.599 70.9479 57.4684 71.0992 57.2622 71.2023C57.0628 71.3055 56.8772 71.3743 56.7053 71.4018C56.5334 71.4362 56.3615 71.4431 56.1759 71.4293C55.9903 71.4156 55.8115 71.388 55.6465 71.3537C55.1447 71.2505 54.6703 71.0373 54.2372 70.7003C54.0653 70.5971 53.9072 70.4733 53.7559 70.322C53.6047 70.1707 53.4947 69.9919 53.4259 69.7925C53.254 69.4211 53.1028 69.0428 52.9722 68.6577C52.8347 68.2726 52.7384 67.8737 52.6697 67.4748C52.6009 67.1378 52.5597 66.8145 52.5459 66.4913C52.5253 66.1749 52.5047 65.8448 52.4703 65.5078C52.4703 65.1708 52.4634 64.8476 52.4428 64.5243C52.4222 64.208 52.4153 63.8779 52.4153 63.5409C52.4153 63.2383 52.4222 62.9288 52.4428 62.6055C52.4565 62.2892 52.484 61.9728 52.5184 61.6702C52.7178 59.3181 53.1372 57.0142 53.7765 54.7584C54.4159 52.5025 55.1378 50.2674 55.9422 48.0528C56.3478 46.98 56.774 45.9002 57.2278 44.8273C57.6815 43.7544 58.1422 42.6747 58.6165 41.6018L60.0809 38.4725C60.349 37.9705 60.6034 37.4547 60.8372 36.932C61.0709 36.4093 61.339 35.9004 61.6415 35.3914C61.8065 35.0201 62.0609 34.7862 62.3978 34.6831L63.0028 34.4836C63.4084 34.4148 63.8072 34.4286 64.2128 34.5111C64.6184 34.5936 65.0034 34.7037 65.3747 34.8412C65.7459 34.9788 66.1034 35.1645 66.4609 35.3983C66.8253 35.6184 67.1209 35.8866 67.3547 36.1892Z" fill="#711BE0"></path><path d="M62.762 64.7926C62.6933 64.0842 62.6658 63.3621 62.6864 62.6262C62.7001 61.8903 62.7414 61.1613 62.8101 60.4598C63.0095 58.9812 63.3808 57.4681 63.917 55.9207C64.4533 54.3733 65.1614 52.9359 66.0345 51.6085C66.9076 50.2812 67.9595 49.1189 69.1833 48.1285C70.407 47.1382 71.8164 46.4367 73.3908 46.0378C73.8926 45.9346 74.4014 45.8865 74.9033 45.8865C76.9864 45.8865 78.8358 46.4229 80.4514 47.5027C80.9533 47.9084 81.3933 48.3967 81.7645 48.9676L82.9745 45.7902C83.1395 45.4188 83.442 45.1712 83.882 45.0337C84.3151 44.903 84.7208 44.8342 85.092 44.8342C85.6626 44.8342 86.2539 44.9718 86.8589 45.24C87.6633 45.4738 88.3576 45.9484 88.9283 46.6499C89.0933 46.8837 89.2376 47.1519 89.3545 47.4545C89.4714 47.7571 89.4645 48.046 89.327 48.3142C88.3508 50.8726 87.4708 53.431 86.6801 56.0032C85.8895 58.5754 85.312 61.2232 84.9408 63.9467L84.6383 65.8655L84.7414 65.3634C84.542 66.7114 84.3908 68.135 84.2876 69.6481C84.2533 70.0195 84.2258 70.3633 84.212 70.6797C84.1914 71.0029 84.2051 71.3468 84.2395 71.7113C84.2395 71.8833 84.2395 72.0346 84.2395 72.1652C84.2395 72.3028 84.2533 72.4541 84.2876 72.6191C84.2876 72.8874 84.3014 73.0524 84.3358 73.1212V73.527C84.4045 73.7608 84.4801 73.9809 84.5626 74.1803C84.6451 74.3798 84.7208 74.5861 84.7895 74.7855L84.8926 74.8887C84.927 74.9231 84.9408 74.9437 84.9408 74.9644C84.9408 74.9781 84.9201 74.9712 84.8926 74.9368C84.927 74.9712 84.9408 75.0056 84.9408 75.04L85.4426 75.6452C85.5114 75.714 85.5595 75.7484 85.5939 75.7484C85.7245 75.8791 85.8345 76.0235 85.9239 76.1748C86.0064 76.3261 85.9995 76.4843 85.8964 76.6562C85.7589 76.89 85.5458 77.007 85.2433 77.007C85.1058 77.007 84.9751 76.9726 84.8376 76.9038L84.0333 76.6493L83.6276 76.4499C83.4901 76.4155 83.3733 76.3467 83.277 76.2504C82.8026 76.0166 82.4176 75.7484 82.1151 75.4458C81.9158 75.2738 81.7164 75.1019 81.5376 74.9162C81.352 74.7305 81.1939 74.538 81.0564 74.3385L80.4033 73.1762C80.3345 73.0387 80.2658 72.9149 80.2039 72.798C80.1351 72.681 80.0664 72.5504 80.0045 72.4197L79.7501 71.7663L79.2964 70.0539C79.1589 69.5862 79.0489 69.0979 78.9664 68.589C78.8839 68.0869 78.8083 67.5642 78.7395 67.0278C78.6364 66.1543 78.5883 65.2878 78.5883 64.4281C78.5883 63.5684 78.6226 62.7019 78.6914 61.8284L77.9351 63.4446C77.667 63.9467 77.3989 64.4694 77.1308 65.0058C76.8626 65.5422 76.5739 66.0649 76.2714 66.567L75.2126 68.08C75.0408 68.2795 74.8826 68.4858 74.7314 68.6852C74.5801 68.8847 74.422 69.0704 74.2501 69.2423C73.7483 69.9507 73.1295 70.4734 72.4076 70.8035C71.6858 71.1405 70.8883 71.3056 70.0151 71.3056C69.4101 71.3056 68.8051 71.2024 68.2001 71.0029L67.3408 70.7003C67.1689 70.6316 66.997 70.5559 66.8114 70.4734C66.6258 70.3909 66.447 70.2808 66.282 70.1433H66.3301H66.282H66.2339L66.0345 70.0401C65.8008 69.9094 65.5945 69.7719 65.4295 69.6343C65.2576 69.5037 65.0926 69.3524 64.9276 69.1804C64.7901 69.0154 64.6595 68.8709 64.522 68.754C64.3845 68.6371 64.2676 68.4927 64.1714 68.3276L63.5664 67.3716C63.1333 66.5876 62.8651 65.7348 62.762 64.7926ZM65.9383 69.8888L66.0414 70.0401C66.0758 70.0401 66.1101 70.047 66.1445 70.0676C66.1789 70.0882 66.2133 70.0951 66.2476 70.0951C66.1445 70.0539 66.0414 69.9851 65.9383 69.8888ZM70.022 69.0773C70.0908 69.1116 70.2076 69.1254 70.3726 69.1254C70.8401 69.1254 71.4108 68.8434 72.0845 68.2657C72.7583 67.6949 73.4939 66.8971 74.3051 65.8724C75.1095 64.8476 75.9414 63.6166 76.8008 62.1929C77.6601 60.7624 78.5058 59.1737 79.3445 57.4268L79.647 56.017C79.812 55.343 79.9908 54.6759 80.1764 54.0019C80.362 53.3279 80.5545 52.6608 80.7539 51.9868C80.7539 51.9524 80.747 51.9318 80.7264 51.9111C80.7058 51.8974 80.6989 51.8699 80.6989 51.8355C80.6645 51.6704 80.6508 51.4916 80.6508 51.3059C80.6508 51.1202 80.6164 50.9483 80.5476 50.7764V50.7282C80.5476 50.6938 80.5408 50.6732 80.5201 50.6526C80.4995 50.6388 80.4926 50.5975 80.4926 50.5288C80.4926 50.5631 80.4858 50.57 80.4651 50.5563C80.4445 50.5425 80.4376 50.515 80.4376 50.4806V50.3775C80.4033 50.2743 80.3689 50.1918 80.3345 50.123C80.3001 50.0542 80.2658 49.9923 80.2314 49.9235C80.2314 49.8204 80.197 49.7379 80.1283 49.6691C80.1283 49.6347 80.1008 49.5934 80.0526 49.5453C80.0045 49.4971 79.9908 49.4696 80.0251 49.4696L79.7708 49.1189C79.7364 49.1189 79.7226 49.112 79.7226 49.0914C79.7226 49.0776 79.702 49.0639 79.6745 49.0639L79.3239 48.7613C79.3239 48.7269 79.3033 48.7131 79.2758 48.7131L79.0764 48.61C78.9389 48.5412 78.8564 48.5068 78.822 48.5068H78.7739C78.7395 48.5068 78.712 48.4999 78.6983 48.4793C78.6776 48.4655 78.6364 48.4518 78.5745 48.4518H77.8664L77.5158 48.5549C77.282 48.6237 77.062 48.7131 76.8626 48.83C76.6633 48.9469 76.457 49.057 76.2576 49.1601L75.907 49.4146C74.9651 50.0198 74.1608 50.8107 73.487 51.7873L72.9851 52.4957C72.0089 53.8093 71.2389 55.288 70.6683 56.9317C70.0976 58.5823 69.6439 60.1916 69.307 61.7734C69.307 61.8422 69.3001 61.9247 69.2795 62.0279C69.2589 62.131 69.252 62.2136 69.252 62.2823C69.1489 62.8532 69.0733 63.3896 69.0251 63.8985C68.977 64.4075 68.9289 64.8889 68.9014 65.3634C68.867 66.1681 68.9289 66.9384 69.0801 67.6605C69.2451 68.362 69.5545 68.8434 70.022 69.0773Z" fill="#711BE0"></path><path d="M88.3783 45.522C89.0177 45.4532 89.6364 45.3913 90.2414 45.3225C90.8464 45.2537 91.4514 45.2056 92.0564 45.1712H92.5583C93.0258 43.8576 93.5345 42.6678 94.0708 41.5881L95.5352 38.4588C95.8033 37.9568 96.0577 37.441 96.2914 36.9183C96.5252 36.3956 96.7933 35.8867 97.0958 35.3777C97.2608 35.0063 97.5152 34.7725 97.852 34.6693L98.457 34.4699C98.5602 34.4355 98.7252 34.4218 98.9589 34.4218C99.5983 34.4218 100.3 34.5937 101.076 34.9238C101.846 35.2608 102.417 35.6803 102.788 36.1824C102.953 36.4162 103.098 36.6776 103.215 36.9664C103.331 37.2553 103.325 37.5304 103.187 37.7986C103.015 38.2731 102.823 38.7408 102.61 39.2085C102.39 39.683 102.163 40.1507 101.929 40.6183L100.719 43.39C100.581 43.6582 100.458 43.9264 100.341 44.1946C100.224 44.4628 100.114 44.7311 100.011 44.9993H100.719L102.383 45.1024C102.685 45.1368 102.981 45.1643 103.263 45.1781C103.545 45.1987 103.826 45.2056 104.095 45.2056L105.002 45.3088C105.201 45.3432 105.394 45.3775 105.58 45.4119C105.765 45.4463 105.937 45.4945 106.109 45.5632C106.343 45.632 106.57 45.7214 106.79 45.8383C107.01 45.9552 107.181 46.1341 107.319 46.3679C107.422 46.5673 107.401 46.7324 107.271 46.8493C107.133 46.9662 106.982 47.0625 106.817 47.1244C106.618 47.1588 106.418 47.1863 106.24 47.2001C106.054 47.2207 105.875 47.2276 105.71 47.2276H104.803C104.5 47.1932 104.191 47.1794 103.868 47.1794C103.545 47.1794 103.235 47.1794 102.933 47.1794C102.362 47.1794 101.798 47.1794 101.241 47.1794C100.685 47.1794 100.121 47.145 99.5502 47.0763H99.0964C97.9208 49.8341 96.917 52.6057 96.0989 55.398C95.2739 58.1902 94.6277 61.0788 94.1602 64.0705C94.1258 64.3387 94.0914 64.6275 94.057 64.9302C94.0227 65.2328 93.9745 65.5354 93.9058 65.838C93.837 66.2094 93.7889 66.5945 93.7545 67.0003C93.7201 67.406 93.6858 67.7912 93.6514 68.1626C93.617 68.4308 93.6033 68.6921 93.6033 68.9466C93.6033 69.201 93.5551 69.4624 93.452 69.7306C93.3833 69.9025 93.3283 70.0676 93.2733 70.2327C93.2252 70.4046 93.1633 70.5697 93.0945 70.7347C93.0258 70.9342 92.8952 71.0855 92.6889 71.1886C92.4827 71.2918 92.3039 71.3606 92.132 71.3881H91.8295C91.3895 71.3881 91.0114 71.3399 90.6952 71.2368C90.372 71.1336 90.0283 70.9548 89.6639 70.6797C89.2583 70.4459 88.9902 70.1433 88.8595 69.7719C88.5227 69.0635 88.2958 68.3689 88.1789 67.6811C88.062 66.9934 87.9658 66.2644 87.9039 65.4872C87.9039 65.1502 87.897 64.827 87.8764 64.5037C87.8558 64.1874 87.8489 63.8573 87.8489 63.5203C87.8489 60.9 88.2202 58.2728 88.9558 55.6525C89.6914 53.0321 90.5027 50.4944 91.3758 48.0391L91.7264 47.0831H89.3545C89.0864 47.0831 88.8183 47.0144 88.5502 46.8837C88.282 46.753 88.0758 46.5673 87.9452 46.3266C87.8145 46.1272 87.7939 45.9484 87.897 45.7971C88.0277 45.6458 88.1789 45.5564 88.3783 45.522Z" fill="#711BE0"></path><path d="M125.036 50.116C124.864 50.3843 124.672 50.7557 124.458 51.2233C124.238 51.6979 124.012 52.2137 123.778 52.7845C123.606 53.4929 123.393 54.2081 123.125 54.9303C122.857 55.6524 122.568 56.402 122.265 57.1723C121.997 57.9151 121.729 58.6441 121.461 59.3662C121.193 60.0884 120.987 60.7899 120.856 61.457C120.553 62.8393 120.333 64.036 120.203 65.0608C120.065 66.0855 119.99 67.0277 119.976 67.8874C119.955 68.7471 120.003 69.5242 120.1 70.2326C120.196 70.941 120.368 71.6425 120.602 72.3509C120.801 73.0249 120.643 73.4169 120.12 73.5338C119.598 73.6507 119.02 73.5613 118.381 73.2587C118.01 73.0868 117.556 72.8598 117.02 72.5778C116.483 72.2958 115.988 71.8213 115.535 71.1679C115.081 70.5146 114.737 69.6136 114.503 68.472C114.27 67.3303 114.283 65.8173 114.552 63.9329C113.947 64.9095 113.321 65.8448 112.688 66.732C112.049 67.6261 111.403 68.417 110.75 69.1047C110.097 69.7925 109.437 70.3495 108.783 70.7691C108.13 71.1886 107.498 71.4018 106.893 71.4018C104.301 71.4018 102.41 70.5971 101.221 68.9809C100.032 67.3647 99.7497 64.9989 100.389 61.8696L100.54 61.1612C100.609 60.9618 100.671 60.728 100.74 60.4529C100.939 59.6138 101.145 58.7885 101.345 57.9839C101.544 57.1792 101.778 56.3677 102.053 55.563C102.287 54.7583 102.541 53.9468 102.809 53.1421C103.077 52.3375 103.345 51.5466 103.613 50.7694C103.882 49.9647 104.184 49.167 104.521 48.376C104.858 47.5851 105.195 46.8011 105.532 46.0308C105.662 45.7626 105.882 45.5632 106.185 45.4256C106.487 45.295 106.769 45.1918 107.044 45.123C107.45 45.0542 107.848 45.068 108.254 45.1505C108.66 45.2331 109.045 45.3431 109.416 45.4806C109.753 45.6182 110.097 45.8108 110.447 46.0583C110.798 46.3128 111.08 46.5879 111.279 46.8905C111.444 47.1244 111.561 47.3788 111.63 47.647C111.698 47.9153 111.678 48.2041 111.582 48.5067C111.313 49.0776 111.08 49.6415 110.873 50.1986C110.674 50.7556 110.468 51.3196 110.268 51.8904C109.56 53.878 108.9 55.8587 108.275 57.8394C107.649 59.827 107.106 61.8215 106.638 63.8435L106.439 64.7513C106.439 64.7857 106.418 64.9851 106.391 65.3565C106.357 65.7279 106.391 66.1336 106.494 66.5669C106.597 67.0071 106.776 67.3991 107.051 67.7498C107.319 68.1006 107.759 68.2794 108.364 68.2794C108.701 68.2794 109.1 68.0387 109.574 67.5504C110.042 67.0621 110.55 66.4363 111.087 65.6591C111.623 64.8888 112.173 64.0085 112.723 63.0388C113.28 62.0622 113.816 61.0856 114.338 60.1159C114.861 59.1393 115.335 58.2108 115.775 57.3167C116.208 56.4296 116.58 55.6799 116.882 55.0747L117.487 52.9564L119 48.5686L119.859 46.2509C120.024 46.1202 120.265 46.0171 120.567 45.9483C120.835 45.8795 121.165 45.8589 121.55 45.8727C121.935 45.8933 122.451 45.9827 123.09 46.1478C124.335 46.5191 125.098 47.09 125.387 47.8602C125.648 48.6168 125.538 49.3733 125.036 50.116Z" fill="#711BE0"></path><path d="M131.34 75.7896H131.491H131.388C131.354 75.7896 131.319 75.7965 131.285 75.8171C131.251 75.8309 131.203 75.8446 131.134 75.8446H131.031C130.659 75.8446 130.426 75.8584 130.323 75.8928C129.614 75.8928 128.817 75.8102 127.93 75.6383C127.036 75.4664 126.17 75.2119 125.331 74.8543C124.493 74.5035 123.743 74.0565 123.09 73.52C122.437 72.9836 121.99 72.3302 121.756 71.5531V71.6563C121.591 71.3193 121.419 70.8997 121.254 70.3977C121.151 69.9644 121.124 69.5586 121.151 69.1872C121.151 68.3482 121.33 67.5848 121.681 66.8902C122.031 66.2024 122.533 65.5903 123.166 65.047C123.771 64.4418 124.513 63.9741 125.386 63.6371L126.191 63.3827C126.259 63.3827 126.308 63.3689 126.342 63.3345C126.376 63.3345 126.528 63.3001 126.796 63.2314C126.995 63.1626 127.167 63.1282 127.298 63.1282H127.751C127.854 63.1626 128.033 63.1763 128.308 63.1763C128.741 63.1763 129.099 63.2933 129.367 63.5271C129.532 63.699 129.518 63.8641 129.319 64.0292L129.216 64.1323L129.064 64.2836C128.927 64.3524 128.81 64.4005 128.714 64.4349C128.645 64.4693 128.576 64.5037 128.514 64.5381C128.446 64.5725 128.363 64.6206 128.26 64.6894H128.157C128.123 64.7238 128.088 64.7375 128.054 64.7375L127.903 64.8407L127.951 64.7926L127.394 65.1983C127.325 65.2671 127.243 65.3221 127.139 65.3771C127.036 65.4253 126.954 65.4872 126.885 65.5559C126.686 65.7279 126.507 65.8792 126.356 66.0099C126.204 66.1474 126.046 66.2987 125.874 66.4638C125.806 66.5325 125.73 66.6151 125.648 66.7182C125.565 66.8214 125.489 66.9039 125.421 66.9727C124.946 67.6467 124.664 68.3688 124.561 69.1391C124.493 69.8131 124.596 70.4527 124.864 71.0579H124.816L125.118 71.615C125.153 71.6838 125.187 71.7319 125.221 71.7663C125.256 71.8007 125.29 71.8351 125.324 71.8695C125.324 71.9038 125.338 71.9382 125.373 71.9726C125.373 72.007 125.441 72.0758 125.572 72.1721C125.606 72.2408 125.675 72.3234 125.771 72.4265C125.84 72.5297 125.923 72.6122 126.026 72.681L126.225 72.8804C126.259 72.8804 126.328 72.9286 126.424 73.0317L126.981 73.3344H127.029L127.483 73.5888H127.531C127.662 73.5888 127.751 73.6026 127.786 73.637H127.834C127.868 73.637 127.903 73.6507 127.937 73.6851H128.04H128.239C128.274 73.7195 128.356 73.7332 128.494 73.7332C128.528 73.6989 128.597 73.6851 128.693 73.6851H128.996C128.927 73.6851 128.879 73.6989 128.844 73.7332C128.879 73.6989 128.948 73.6851 129.044 73.6851C129.078 73.6507 129.147 73.637 129.243 73.637H129.195C129.999 73.4375 130.659 73.1624 131.161 72.8323C131.23 72.7635 131.292 72.7291 131.361 72.7291C131.395 72.6947 131.429 72.6672 131.464 72.6535C131.498 72.6329 131.533 72.6122 131.567 72.5778L131.918 72.1721V72.2202L132.371 71.6631L132.22 71.8144C132.488 71.4774 132.688 71.0992 132.825 70.6797C132.956 70.2601 133.059 69.8475 133.128 69.4417C133.128 69.3729 133.141 69.3248 133.176 69.2904V69.1872V69.1391C133.21 68.7677 133.231 68.417 133.251 68.08C133.265 67.743 133.258 67.3922 133.224 67.0208C133.155 65.9823 133.073 65.0608 132.969 64.2699C132.866 63.479 132.749 62.7156 132.619 61.9728C132.481 61.2369 132.316 60.4598 132.117 59.6551C131.918 58.8504 131.663 57.922 131.361 56.8835C131.258 56.5465 131.161 56.2095 131.058 55.8725C130.955 55.5355 130.873 55.1985 130.804 54.8615L130.302 52.8464C130.268 52.6813 130.233 52.5094 130.199 52.3444C130.164 52.1793 130.13 52.0074 130.096 51.8423C130.061 51.6772 130.027 51.5122 129.993 51.3609C129.958 51.2096 129.924 51.0514 129.889 50.8795C129.855 50.7144 129.828 50.5493 129.814 50.398C129.793 50.2467 129.773 50.0886 129.738 49.9166C129.704 49.7516 129.676 49.5865 129.663 49.4352C129.642 49.2839 129.656 49.1257 129.69 48.9538L129.738 48.6993C129.704 48.7337 129.69 48.7818 129.69 48.8506C129.69 48.6855 129.704 48.5824 129.738 48.548V48.6512L129.841 48.0459C129.841 47.5439 129.972 46.9868 130.247 46.3816C130.446 45.8108 130.783 45.2881 131.258 44.8204L131.154 44.9717C131.285 44.8067 131.429 44.6554 131.581 44.5178C131.732 44.3871 131.89 44.2496 132.062 44.112C132.227 44.0089 132.399 43.9126 132.564 43.8094C132.729 43.7063 132.901 43.5894 133.066 43.4587C133.739 43.0873 134.461 42.8397 135.231 42.7022C135.431 42.6678 135.623 42.6471 135.809 42.6265C135.994 42.6128 136.187 42.599 136.386 42.599C137.761 42.599 139.074 42.936 140.319 43.61C140.621 43.7475 140.903 43.947 141.178 44.2152C141.281 44.2496 141.343 44.3184 141.378 44.4146C141.412 44.4146 141.46 44.449 141.529 44.5178L141.632 44.6691C141.934 44.9717 142.203 45.3912 142.436 45.9277C143.007 46.9387 143.11 48.0322 142.739 49.2082C142.704 49.3458 142.67 49.4765 142.636 49.614C142.601 49.7516 142.553 49.9029 142.484 50.0679C142.416 50.2399 142.347 50.3912 142.285 50.5218C142.216 50.6594 142.148 50.7901 142.086 50.9276C142.017 51.0995 141.941 51.2508 141.859 51.3815C141.776 51.5191 141.701 51.6497 141.632 51.7873C141.563 51.9592 141.481 52.1105 141.378 52.2412C141.274 52.3787 141.192 52.5094 141.123 52.647C141.054 52.7157 140.986 52.7501 140.924 52.7501C140.889 52.7501 140.862 52.7433 140.848 52.7226C140.828 52.7089 140.786 52.6951 140.724 52.6951C140.491 52.6607 140.388 52.5782 140.422 52.4406L140.573 51.7323C140.573 51.3265 140.587 51.0789 140.621 50.9757C140.724 50.5081 140.773 50.0542 140.773 49.614C140.841 48.6718 140.773 47.8465 140.573 47.145C140.504 46.9456 140.47 46.8286 140.47 46.7942V46.8424C140.436 46.808 140.422 46.7736 140.422 46.7392L140.223 46.2853L139.872 45.8314V45.7833L139.267 45.2262H139.219C139.184 45.1918 139.157 45.178 139.143 45.178C139.123 45.178 139.102 45.1437 139.068 45.0749L138.868 44.9717C138.834 44.9373 138.765 44.9236 138.669 44.9236C138.566 44.9236 138.483 44.8892 138.414 44.8204C138.38 44.8204 138.346 44.8067 138.311 44.7723H138.16C138.126 44.7723 138.091 44.7929 138.057 44.8204H137.954C137.919 44.8548 137.885 44.8686 137.851 44.8686H137.954C137.754 44.9373 137.665 44.9717 137.699 44.9717L137.748 44.9236L137.548 45.0749C137.349 45.2124 137.198 45.3294 137.094 45.4256L136.593 45.9827L136.696 45.8795C136.324 46.5191 136.091 47.1244 135.988 47.6952C135.953 48.1354 135.953 48.5686 135.988 49.0088L136.242 50.5218C136.441 51.9317 136.737 53.3485 137.122 54.7583C137.507 56.1682 137.919 57.5643 138.359 58.9467C138.964 61.2369 139.398 63.534 139.673 65.8586C139.741 66.3331 139.741 66.8008 139.673 67.2684C139.638 67.5023 139.611 67.743 139.597 67.9768C139.576 68.2106 139.556 68.4651 139.521 68.7333C139.487 69.2698 139.384 69.7787 139.219 70.2464C139.15 70.4183 139.081 70.6178 139.019 70.8516C138.951 71.0854 138.868 71.2917 138.765 71.4568C138.194 72.4334 137.431 73.2587 136.469 73.9258C135.513 74.5998 134.496 75.0881 133.416 75.3907C133.079 75.5214 132.825 75.6108 132.66 75.6452C132.523 75.6796 132.392 75.6933 132.254 75.6933C132.117 75.6933 131.986 75.7071 131.849 75.7415C131.711 75.7415 131.615 75.7552 131.546 75.7896H131.141C131.072 75.7896 131.024 75.8034 130.989 75.8377H131.093C131.203 75.8034 131.271 75.7896 131.34 75.7896ZM125.586 72.2064L125.689 72.3096L125.586 72.2064ZM126.397 72.963C126.431 72.963 126.479 72.9974 126.548 73.0661C126.349 72.8942 126.246 72.8323 126.246 72.8667C126.28 72.8667 126.294 72.8736 126.294 72.8942C126.294 72.9079 126.308 72.9217 126.342 72.9217L126.397 72.963ZM127.504 73.5682H127.552L127.298 73.465L127.504 73.5682ZM133.203 69.0291C133.169 69.1322 133.155 69.2629 133.155 69.4348C133.155 69.3042 133.169 69.2148 133.203 69.1804V69.0291ZM136.73 45.8245C136.73 45.8589 136.709 45.8933 136.682 45.9277L136.73 45.8245ZM138.146 44.8135C138.112 44.8135 138.084 44.8204 138.071 44.841C138.05 44.8617 138.029 44.8686 137.995 44.8686C138.057 44.8686 138.112 44.8479 138.146 44.8135L138.249 44.7654C138.215 44.7654 138.201 44.7723 138.201 44.7929C138.194 44.8067 138.174 44.8135 138.146 44.8135C138.181 44.8135 138.201 44.8067 138.222 44.786C138.236 44.7723 138.263 44.7585 138.298 44.7585H138.249H138.298H138.194L138.091 44.8067H138.146V44.8135ZM138.449 44.7173C138.414 44.7173 138.387 44.7241 138.373 44.7448C138.353 44.7654 138.332 44.7723 138.298 44.7723H138.346C138.38 44.7723 138.394 44.7654 138.394 44.7448C138.394 44.7241 138.414 44.7173 138.449 44.7173ZM138.545 44.8135C138.614 44.8479 138.662 44.8617 138.696 44.8617H138.744H138.696L138.648 44.8135H138.545ZM139.102 45.068C138.964 44.9992 138.964 45.0199 139.102 45.1161V45.068ZM139.253 45.2193C139.253 45.2537 139.267 45.2675 139.301 45.2675L139.404 45.3156C139.336 45.3156 139.301 45.2812 139.301 45.2124H139.253V45.2193ZM141.673 44.6622C141.708 44.731 141.728 44.7585 141.749 44.7379C141.763 44.7241 141.742 44.6829 141.673 44.6141V44.6622Z" fill="#711BE0"></path><defs><radialGradient id="paint0_radial_26_1761" cx="0" cy="0" r="1" gradientUnits="userSpaceOnUse" gradientTransform="translate(0.809982 73.3753) rotate(-18.3487) scale(84.4268 84.451)"><stop offset="0.5376" stop-color="#882A85"></stop><stop offset="1" stop-color="#362782"></stop></radialGradient><linearGradient id="paint1_linear_26_1761" x1="-6.67925" y1="37.9665" x2="35.309" y2="24.0506" gradientUnits="userSpaceOnUse"><stop offset="0.2312" stop-color="#1D70B7"></stop><stop offset="0.5401" stop-color="#1BB1AD"></stop></linearGradient></defs></svg>